<?xml version="1.0" encoding="UTF-8" standalone="no"?>
<!-- Generator: Gravit.io -->
<svg xmlns="http://www.w3.org/2000/svg" xmlns:xlink="http://www.w3.org/1999/xlink" style="isolation:isolate" viewBox="631.517 902.431 142.757 139.772" width="142.757pt" height="139.772pt"><defs><clipPath id="_clipPath_2hZNHAlac6ABlmel8QCI0pKZlvIx67az"><rect x="631.517" y="902.431" width="142.757" height="139.772"/></clipPath></defs><g clip-path="url(#_clipPath_2hZNHAlac6ABlmel8QCI0pKZlvIx67az)"><path d=" M 682.414 919.782 C 682.414 919.782 674.524 907.913 653.295 906.931 L 650.107 951.893" fill="none" vector-effect="non-scaling-stroke" stroke-width="3" stroke="rgb(52,65,84)" stroke-linejoin="miter" stroke-linecap="round" stroke-miterlimit="3" style="mix-blend-mode:source-over;"/><line x1="682.414" y1="919.782" x2="682.414" y2="958.019" vector-effect="non-scaling-stroke" stroke-width="3" stroke="rgb(52,65,84)" stroke-linejoin="miter" stroke-linecap="round" stroke-miterlimit="3" style="mix-blend-mode:source-over;"/><path d=" M 682.414 973.816 C 678.394 973.816 674.375 971.735 672.353 967.572 C 672.012 966.869 671.871 966.413 671.871 966.413 C 656.901 960.182 645.386 960.386 639.664 961.118 C 637.617 961.379 635.856 959.686 636.028 957.629 L 639.571 915.219 C 639.716 913.488 641.198 912.166 642.934 912.247 C 644.266 912.31 645.684 912.472 646.423 912.853" fill="none" vector-effect="non-scaling-stroke" stroke-width="3" stroke="rgb(52,65,84)" stroke-linejoin="miter" stroke-linecap="round" stroke-miterlimit="3" style="mix-blend-mode:source-over;"/><path d=" M 682.415 919.782 C 682.415 919.782 690.305 907.913 711.534 906.931 L 714.722 951.893" fill="none" vector-effect="non-scaling-stroke" stroke-width="3" stroke="rgb(52,65,84)" stroke-linejoin="miter" stroke-linecap="round" stroke-miterlimit="3" style="mix-blend-mode:source-over;"/><path d=" M 682.414 973.816 C 686.433 973.816 690.452 971.735 692.475 967.572 C 692.816 966.869 692.957 966.413 692.957 966.413 C 707.927 960.182 719.442 960.386 725.164 961.118 C 727.21 961.379 728.972 959.686 728.8 957.629 L 725.257 915.219 C 725.112 913.488 723.629 912.166 721.894 912.247 C 720.561 912.31 719.144 912.472 718.404 912.853" fill="none" vector-effect="non-scaling-stroke" stroke-width="3" stroke="rgb(52,65,84)" stroke-linejoin="miter" stroke-linecap="round" stroke-miterlimit="3" style="mix-blend-mode:source-over;"/><path d=" M 759.941 1037.703 L 750.153 1037.703 C 744.722 1037.703 740.319 1033.301 740.319 1027.87 L 740.319 1001.911 C 740.319 996.479 744.722 992.078 750.153 992.078 L 759.941 992.078 C 765.372 992.078 769.774 996.479 769.774 1001.911 L 769.774 1027.87 C 769.774 1033.301 765.372 1037.703 759.941 1037.703 Z " fill="none" vector-effect="non-scaling-stroke" stroke-width="3" stroke="rgb(52,65,84)" stroke-linejoin="miter" stroke-linecap="round" stroke-miterlimit="3" style="mix-blend-mode:source-over;"/><path d=" M 759.359 1008.308 C 759.359 1010.689 757.429 1012.62 755.047 1012.62 C 752.666 1012.62 750.734 1010.689 750.734 1008.308 C 750.734 1005.926 752.666 1003.996 755.047 1003.996 C 757.429 1003.996 759.359 1005.926 759.359 1008.308 Z " fill="none" vector-effect="non-scaling-stroke" stroke-width="3" stroke="rgb(52,65,84)" stroke-linejoin="miter" stroke-linecap="round" stroke-miterlimit="3" style="mix-blend-mode:source-over;"/><line x1="755.047" y1="1003.995" x2="755.047" y2="992.078" vector-effect="non-scaling-stroke" stroke-width="3" stroke="rgb(52,65,84)" stroke-linejoin="miter" stroke-linecap="round" stroke-miterlimit="3" style="mix-blend-mode:source-over;"/><path d=" M 755.047 992.078 L 755.047 979.263 C 755.047 973.055 748.471 969.495 743.079 970.588 C 735.539 972.115 730.38 979.398 726.53 986.057 C 722.692 992.696 720.067 999.974 716.324 1006.669 C 712.581 1013.362 707.847 1019.539 700.2 1020.12 C 693.579 1020.623 682.414 1015.933 682.414 1002.44 L 682.414 994.563 L 682.414 973.815" fill="none" vector-effect="non-scaling-stroke" stroke-width="3" stroke="rgb(52,65,84)" stroke-linejoin="miter" stroke-linecap="round" stroke-miterlimit="3" style="mix-blend-mode:source-over;"/></g></svg>