<?xml version="1.0" encoding="UTF-8" standalone="no"?>
<!-- Generator: Gravit.io -->
<svg xmlns="http://www.w3.org/2000/svg" xmlns:xlink="http://www.w3.org/1999/xlink" style="isolation:isolate" viewBox="1488.853 1337.37 125.831 129.246" width="125.831pt" height="129.246pt"><defs><clipPath id="_clipPath_Wg6X9bpA8QZA95FyXKCkKzBlvHf1wcJn"><rect x="1488.853" y="1337.37" width="125.831" height="129.246"/></clipPath></defs><g clip-path="url(#_clipPath_Wg6X9bpA8QZA95FyXKCkKzBlvHf1wcJn)"><path d=" M 1524.742 1445.202 L 1532.966 1452.306 L 1532.966 1462.115" fill="none" vector-effect="non-scaling-stroke" stroke-width="3" stroke="rgb(52,65,84)" stroke-linejoin="miter" stroke-linecap="round" stroke-miterlimit="3" style="mix-blend-mode:source-over;"/><path d=" M 1525.179 1431.247 C 1525.179 1438.754 1520.075 1444.84 1513.778 1444.84 C 1507.482 1444.84 1502.377 1438.754 1502.377 1431.247 C 1502.377 1423.739 1507.482 1417.653 1513.778 1417.653 C 1520.075 1417.653 1525.179 1423.739 1525.179 1431.247 Z " fill="none" vector-effect="non-scaling-stroke" stroke-width="3" stroke="rgb(52,65,84)" stroke-linejoin="miter" stroke-linecap="round" stroke-miterlimit="3" style="mix-blend-mode:source-over;"/><path d=" M 1563.352 1445.202 L 1571.576 1452.306 L 1571.576 1462.115" fill="none" vector-effect="non-scaling-stroke" stroke-width="3" stroke="rgb(52,65,84)" stroke-linejoin="miter" stroke-linecap="round" stroke-miterlimit="3" style="mix-blend-mode:source-over;"/><line x1="1541.207" y1="1444.983" x2="1532.966" y2="1452.305" vector-effect="non-scaling-stroke" stroke-width="3" stroke="rgb(52,65,84)" stroke-linejoin="miter" stroke-linecap="round" stroke-miterlimit="3" style="mix-blend-mode:source-over;"/><path d=" M 1563.787 1431.247 C 1563.787 1438.754 1558.683 1444.84 1552.387 1444.84 C 1546.09 1444.84 1540.985 1438.754 1540.985 1431.247 C 1540.985 1423.739 1546.09 1417.653 1552.387 1417.653 C 1558.683 1417.653 1563.787 1423.739 1563.787 1431.247 Z " fill="none" vector-effect="non-scaling-stroke" stroke-width="3" stroke="rgb(52,65,84)" stroke-linejoin="miter" stroke-linecap="round" stroke-miterlimit="3" style="mix-blend-mode:source-over;"/><path d=" M 1601.96 1445.202 L 1610.184 1452.306 L 1610.184 1462.115" fill="none" vector-effect="non-scaling-stroke" stroke-width="3" stroke="rgb(52,65,84)" stroke-linejoin="miter" stroke-linecap="round" stroke-miterlimit="3" style="mix-blend-mode:source-over;"/><path d=" M 1501.578 1445.202 L 1493.353 1452.306 L 1493.353 1462.115" fill="none" vector-effect="non-scaling-stroke" stroke-width="3" stroke="rgb(52,65,84)" stroke-linejoin="miter" stroke-linecap="round" stroke-miterlimit="3" style="mix-blend-mode:source-over;"/><line x1="1579.817" y1="1444.983" x2="1571.575" y2="1452.305" vector-effect="non-scaling-stroke" stroke-width="3" stroke="rgb(52,65,84)" stroke-linejoin="miter" stroke-linecap="round" stroke-miterlimit="3" style="mix-blend-mode:source-over;"/><path d=" M 1602.397 1431.247 C 1602.397 1438.754 1597.293 1444.84 1590.996 1444.84 C 1584.7 1444.84 1579.595 1438.754 1579.595 1431.247 C 1579.595 1423.739 1584.7 1417.653 1590.996 1417.653 C 1597.293 1417.653 1602.397 1423.739 1602.397 1431.247 Z " fill="none" vector-effect="non-scaling-stroke" stroke-width="3" stroke="rgb(52,65,84)" stroke-linejoin="miter" stroke-linecap="round" stroke-miterlimit="3" style="mix-blend-mode:source-over;"/><path d=" M 1502.943 1413.316 L 1502.943 1349.144 C 1502.943 1345.127 1506.199 1341.87 1510.217 1341.87 L 1593.321 1341.87 C 1597.339 1341.87 1600.595 1345.127 1600.595 1349.144 L 1600.595 1413.316" fill="none" vector-effect="non-scaling-stroke" stroke-width="3" stroke="rgb(52,65,84)" stroke-linejoin="miter" stroke-linecap="round" stroke-miterlimit="3" style="mix-blend-mode:source-over;"/><path d=" M 1560.51 1341.87 L 1560.51 1351.179 C 1560.51 1353.255 1558.827 1354.936 1556.753 1354.936 L 1545.484 1354.936 C 1543.408 1354.936 1541.727 1353.255 1541.727 1351.179 L 1541.727 1341.87" fill="none" vector-effect="non-scaling-stroke" stroke-width="3" stroke="rgb(52,65,84)" stroke-linejoin="miter" stroke-linecap="round" stroke-miterlimit="3" style="mix-blend-mode:source-over;"/><path d=" M 1551.769 1348.403 C 1551.769 1348.762 1551.478 1349.053 1551.119 1349.053 C 1550.759 1349.053 1550.468 1348.762 1550.468 1348.403 C 1550.468 1348.044 1550.759 1347.753 1551.119 1347.753 C 1551.478 1347.753 1551.769 1348.044 1551.769 1348.403 Z " fill="none" vector-effect="non-scaling-stroke" stroke-width="3" stroke="rgb(52,65,84)" stroke-linejoin="miter" stroke-linecap="round" stroke-miterlimit="3" style="mix-blend-mode:source-over;"/><path d=" M 1582.337 1366.59 C 1582.337 1371.883 1578.834 1376.174 1574.512 1376.174 C 1570.191 1376.174 1566.688 1371.883 1566.688 1366.59 C 1566.688 1361.297 1570.191 1357.007 1574.512 1357.007 C 1578.834 1357.007 1582.337 1361.297 1582.337 1366.59 Z " fill="none" vector-effect="non-scaling-stroke" stroke-width="3" stroke="rgb(52,65,84)" stroke-linejoin="miter" stroke-linecap="round" stroke-miterlimit="3" style="mix-blend-mode:source-over;"/><path d=" M 1592.042 1388.733 L 1586.421 1383.534 L 1582.774 1380.27" fill="none" vector-effect="non-scaling-stroke" stroke-width="3" stroke="rgb(52,65,84)" stroke-linejoin="miter" stroke-linecap="round" stroke-miterlimit="3" style="mix-blend-mode:source-over;"/><path d=" M 1583.817 1403.202 L 1583.817 1392.464 L 1583.796 1389.469 L 1591.552 1396.335" fill="none" vector-effect="non-scaling-stroke" stroke-width="3" stroke="rgb(52,65,84)" stroke-linejoin="miter" stroke-linecap="round" stroke-miterlimit="3" style="mix-blend-mode:source-over;"/><path d=" M 1567.174 1380.25 L 1557.016 1372.102 C 1555.689 1371.036 1553.702 1371.076 1552.57 1372.346 C 1551.361 1373.699 1551.548 1375.771 1552.945 1376.892 L 1562.376 1384.457 C 1564.013 1385.771 1564.965 1387.755 1564.965 1389.853 L 1564.965 1403.201" fill="none" vector-effect="non-scaling-stroke" stroke-width="3" stroke="rgb(52,65,84)" stroke-linejoin="miter" stroke-linecap="round" stroke-miterlimit="3" style="mix-blend-mode:source-over;"/><path d=" M 1513.956 1367.665 L 1513.956 1403.815 L 1553.885 1403.815" fill="none" vector-effect="non-scaling-stroke" stroke-width="3" stroke="rgb(52,65,84)" stroke-linejoin="miter" stroke-linecap="round" stroke-miterlimit="3" style="mix-blend-mode:source-over;"/><path d=" M 1521.145 1376.31 C 1522.768 1375.54 1524.744 1375.556 1526.355 1376.353 C 1527.965 1377.15 1529.177 1378.709 1529.551 1380.467 C 1530.026 1382.7 1529.216 1385.135 1530.069 1387.252 C 1530.884 1389.279 1533.033 1390.462 1535.156 1390.975 C 1537.278 1391.487 1539.499 1391.49 1541.621 1392.004 C 1543.744 1392.519 1545.889 1393.709 1546.698 1395.738" fill="none" vector-effect="non-scaling-stroke" stroke-width="3" stroke="rgb(52,65,84)" stroke-linejoin="miter" stroke-linecap="round" stroke-miterlimit="3" style="mix-blend-mode:source-over;"/></g></svg>