<?xml version="1.0" encoding="UTF-8" standalone="no"?>
<!-- Generator: Gravit.io -->
<svg xmlns="http://www.w3.org/2000/svg" xmlns:xlink="http://www.w3.org/1999/xlink" style="isolation:isolate" viewBox="1486.528 271.9 142.074 138.48" width="142.074pt" height="138.48pt"><defs><clipPath id="_clipPath_qpmq3jq54J37wO57pdTZns81RCjhBOwO"><rect x="1486.528" y="271.9" width="142.074" height="138.48"/></clipPath></defs><g clip-path="url(#_clipPath_qpmq3jq54J37wO57pdTZns81RCjhBOwO)"><path d=" M 1504.92 288.931 L 1515.66 289.834 L 1514.757 300.575" fill="none" vector-effect="non-scaling-stroke" stroke-width="3" stroke="rgb(52,65,84)" stroke-linejoin="miter" stroke-linecap="round" stroke-miterlimit="3" style="mix-blend-mode:source-over;"/><path d=" M 1524.095 405.88 L 1521.837 395.34 L 1532.376 393.082" fill="none" vector-effect="non-scaling-stroke" stroke-width="3" stroke="rgb(52,65,84)" stroke-linejoin="miter" stroke-linecap="round" stroke-miterlimit="3" style="mix-blend-mode:source-over;"/><path d=" M 1624.103 320.729 L 1618.03 329.634 L 1609.124 323.562" fill="none" vector-effect="non-scaling-stroke" stroke-width="3" stroke="rgb(52,65,84)" stroke-linejoin="miter" stroke-linecap="round" stroke-miterlimit="3" style="mix-blend-mode:source-over;"/><path d=" M 1619.027 340.4 C 1619.027 375.746 1590.375 404.4 1555.028 404.4 C 1546.692 404.4 1538.728 402.806 1531.425 399.907" fill="none" vector-effect="non-scaling-stroke" stroke-width="3" stroke="rgb(52,65,84)" stroke-linejoin="miter" stroke-linecap="round" stroke-miterlimit="3" style="mix-blend-mode:source-over;"/><path d=" M 1523.075 284.935 C 1532.477 279.506 1543.389 276.4 1555.028 276.4 C 1582.84 276.4 1606.508 294.14 1615.334 318.922" fill="none" vector-effect="non-scaling-stroke" stroke-width="3" stroke="rgb(52,65,84)" stroke-linejoin="miter" stroke-linecap="round" stroke-miterlimit="3" style="mix-blend-mode:source-over;"/><path d=" M 1514.153 389.649 C 1500.024 377.909 1491.028 360.205 1491.028 340.4 C 1491.028 323.322 1497.716 307.807 1508.618 296.33" fill="none" vector-effect="non-scaling-stroke" stroke-width="3" stroke="rgb(52,65,84)" stroke-linejoin="miter" stroke-linecap="round" stroke-miterlimit="3" style="mix-blend-mode:source-over;"/><path d=" M 1519.487 333.39 L 1550.747 343.225 C 1553.844 344.199 1557.167 344.199 1560.263 343.225 L 1599.348 330.928 C 1600.742 330.49 1600.742 328.518 1599.348 328.079 L 1560.263 315.783 C 1557.167 314.808 1553.844 314.808 1550.747 315.783 L 1511.662 328.079 L 1511.662 348.673" fill="none" vector-effect="non-scaling-stroke" stroke-width="3" stroke="rgb(52,65,84)" stroke-linejoin="miter" stroke-linecap="round" stroke-miterlimit="3" style="mix-blend-mode:source-over;"/><path d=" M 1584.566 335.859 L 1584.562 355.623 C 1584.561 357.379 1583.538 358.981 1581.938 359.706 C 1565.143 367.324 1545.865 367.324 1529.07 359.706 C 1527.47 358.981 1526.447 357.379 1526.447 355.623 L 1526.447 335.859" fill="none" vector-effect="non-scaling-stroke" stroke-width="3" stroke="rgb(52,65,84)" stroke-linejoin="miter" stroke-linecap="round" stroke-miterlimit="3" style="mix-blend-mode:source-over;"/></g></svg>