<?xml version="1.0" encoding="UTF-8" standalone="no"?>
<!-- Generator: Gravit.io -->
<svg xmlns="http://www.w3.org/2000/svg" xmlns:xlink="http://www.w3.org/1999/xlink" style="isolation:isolate" viewBox="1906.887 1532.481 148.74 150.932" width="148.74pt" height="150.932pt"><defs><clipPath id="_clipPath_ts51Rvqay6Uya9MDjZOQodN08lrTu8i3"><rect x="1906.887" y="1532.481" width="148.74" height="150.932"/></clipPath></defs><g clip-path="url(#_clipPath_ts51Rvqay6Uya9MDjZOQodN08lrTu8i3)"><path d=" M 1985.021 1601.406 L 1960.647 1601.406 L 1960.647 1577.032 L 1985.021 1577.032 L 1985.021 1601.406 Z  M 1947.782 1614.269 L 1997.884 1614.269 L 1997.884 1564.167 L 1947.782 1564.167 L 1947.782 1614.269 Z " fill="rgb(171,242,99)"/><path d=" M 1999.807 1635.641 C 2011.731 1634.905 2024.112 1633.45 2037.841 1631.275" fill="none" vector-effect="non-scaling-stroke" stroke-width="3" stroke="rgb(52,65,84)" stroke-linejoin="miter" stroke-linecap="round" stroke-miterlimit="3" style="mix-blend-mode:source-over;"/><path d=" M 1925.661 1631.275 C 1939.419 1633.455 1951.823 1634.912 1963.77 1635.645" fill="none" vector-effect="non-scaling-stroke" stroke-width="3" stroke="rgb(52,65,84)" stroke-linejoin="miter" stroke-linecap="round" stroke-miterlimit="3" style="mix-blend-mode:source-over;"/><path d=" M 1949.676 1660.56 C 1942.043 1661.354 1934.108 1662.419 1925.661 1663.756" fill="none" vector-effect="non-scaling-stroke" stroke-width="3" stroke="rgb(52,65,84)" stroke-linejoin="miter" stroke-linecap="round" stroke-miterlimit="3" style="mix-blend-mode:source-over;"/><path d=" M 2037.841 1663.756 C 2029.719 1662.47 2022.069 1661.436 2014.705 1660.652" fill="none" vector-effect="non-scaling-stroke" stroke-width="3" stroke="rgb(52,65,84)" stroke-linejoin="miter" stroke-linecap="round" stroke-miterlimit="3" style="mix-blend-mode:source-over;"/><path d=" M 1998.103 1646.843 C 1998.103 1637.833 1990.8 1630.53 1981.791 1630.53 C 1972.781 1630.53 1965.477 1637.833 1965.477 1646.843 C 1965.477 1655.852 1972.781 1663.155 1981.791 1663.155 C 1990.8 1663.155 1998.103 1655.852 1998.103 1646.843 Z " fill="none" vector-effect="non-scaling-stroke" stroke-width="3" stroke="rgb(52,65,84)" stroke-linejoin="miter" stroke-linecap="round" stroke-miterlimit="3" style="mix-blend-mode:source-over;"/><path d=" M 1986.354 1662.852 L 2002.415 1678.913 L 2002.415 1667.466 L 2013.861 1667.466 L 1997.799 1651.406" fill="none" vector-effect="non-scaling-stroke" stroke-width="3" stroke="rgb(52,65,84)" stroke-linejoin="miter" stroke-linecap="round" stroke-miterlimit="3" style="mix-blend-mode:source-over;"/><path d=" M 1977.226 1662.852 L 1961.346 1678.733 L 1961.346 1667.286 L 1949.9 1667.286 L 1965.781 1651.406" fill="none" vector-effect="non-scaling-stroke" stroke-width="3" stroke="rgb(52,65,84)" stroke-linejoin="miter" stroke-linecap="round" stroke-miterlimit="3" style="mix-blend-mode:source-over;"/><path d=" M 2037.841 1631.275 C 2040.442 1631.275 2042.549 1638.546 2042.549 1647.516 C 2042.549 1656.486 2040.442 1663.756 2037.841 1663.756" fill="none" vector-effect="non-scaling-stroke" stroke-width="3" stroke="rgb(52,65,84)" stroke-linejoin="miter" stroke-linecap="round" stroke-miterlimit="3" style="mix-blend-mode:source-over;"/><path d=" M 2041.747 1638.134 L 2050.263 1638.134 C 2050.807 1640.783 2051.127 1644.021 2051.127 1647.516 C 2051.127 1651.012 2050.807 1654.249 2050.262 1656.9 L 2041.561 1656.9" fill="none" vector-effect="non-scaling-stroke" stroke-width="3" stroke="rgb(52,65,84)" stroke-linejoin="miter" stroke-linecap="round" stroke-miterlimit="3" style="mix-blend-mode:source-over;"/><path d=" M 1920.768 1638.134 L 1912.252 1638.134 C 1911.707 1640.783 1911.387 1644.021 1911.387 1647.516 C 1911.387 1651.012 1911.707 1654.249 1912.252 1656.9 L 1920.954 1656.9" fill="none" vector-effect="non-scaling-stroke" stroke-width="3" stroke="rgb(52,65,84)" stroke-linejoin="miter" stroke-linecap="round" stroke-miterlimit="3" style="mix-blend-mode:source-over;"/><path d=" M 1925.661 1631.275 C 1923.06 1631.275 1920.953 1638.546 1920.953 1647.516 C 1920.953 1656.486 1923.06 1663.756 1925.661 1663.756" fill="none" vector-effect="non-scaling-stroke" stroke-width="3" stroke="rgb(52,65,84)" stroke-linejoin="miter" stroke-linecap="round" stroke-miterlimit="3" style="mix-blend-mode:source-over;"/><path d=" M 2021.187 1626.587 L 2021.187 1536.981 L 1957.291 1536.981 L 1941.329 1552.944 L 1941.329 1626.587" fill="none" vector-effect="non-scaling-stroke" stroke-width="3" stroke="rgb(52,65,84)" stroke-linejoin="miter" stroke-linecap="round" stroke-miterlimit="3" style="mix-blend-mode:source-over;"/><path d=" M 1960.697 1543.465 L 1960.697 1556.35 L 1947.812 1556.35" fill="none" vector-effect="non-scaling-stroke" stroke-width="3" stroke="rgb(52,65,84)" stroke-linejoin="miter" stroke-linecap="round" stroke-miterlimit="3" style="mix-blend-mode:source-over;"/><line x1="1965" y1="1568.123" x2="1957.167" y2="1589.218" vector-effect="non-scaling-stroke" stroke-width="3" stroke="rgb(52,65,84)" stroke-linejoin="miter" stroke-linecap="round" stroke-miterlimit="3" style="mix-blend-mode:source-over;"/><line x1="1965" y1="1568.123" x2="1972.833" y2="1589.218" vector-effect="non-scaling-stroke" stroke-width="3" stroke="rgb(52,65,84)" stroke-linejoin="miter" stroke-linecap="round" stroke-miterlimit="3" style="mix-blend-mode:source-over;"/><line x1="1960.602" y1="1579.968" x2="1969.399" y2="1579.968" vector-effect="non-scaling-stroke" stroke-width="3" stroke="rgb(52,65,84)" stroke-linejoin="miter" stroke-linecap="round" stroke-miterlimit="3" style="mix-blend-mode:source-over;"/><line x1="1981.257" y1="1589.218" x2="2011" y2="1589.218" vector-effect="non-scaling-stroke" stroke-width="3" stroke="rgb(52,65,84)" stroke-linejoin="miter" stroke-linecap="round" stroke-miterlimit="3" style="mix-blend-mode:source-over;"/><line x1="1981.257" y1="1578.67" x2="2011" y2="1578.67" vector-effect="non-scaling-stroke" stroke-width="3" stroke="rgb(52,65,84)" stroke-linejoin="miter" stroke-linecap="round" stroke-miterlimit="3" style="mix-blend-mode:source-over;"/><line x1="1957.167" y1="1610.837" x2="2011" y2="1610.837" vector-effect="non-scaling-stroke" stroke-width="3" stroke="rgb(52,65,84)" stroke-linejoin="miter" stroke-linecap="round" stroke-miterlimit="3" style="mix-blend-mode:source-over;"/><line x1="1957.167" y1="1600.289" x2="2011" y2="1600.289" vector-effect="non-scaling-stroke" stroke-width="3" stroke="rgb(52,65,84)" stroke-linejoin="miter" stroke-linecap="round" stroke-miterlimit="3" style="mix-blend-mode:source-over;"/></g></svg>