<?xml version="1.0" encoding="UTF-8" standalone="no"?>
<!-- Generator: Gravit.io -->
<svg xmlns="http://www.w3.org/2000/svg" xmlns:xlink="http://www.w3.org/1999/xlink" style="isolation:isolate" viewBox="514.15 303.589 433.7 372.823" width="433.7pt" height="372.823pt"><defs><clipPath id="_clipPath_ngVRonACiio4Smg9KX0I09UcfLEw0TwO"><rect x="514.15" y="303.589" width="433.7" height="372.823"/></clipPath></defs><g clip-path="url(#_clipPath_ngVRonACiio4Smg9KX0I09UcfLEw0TwO)"><path d=" M 691.626 536.4 C 711.897 537.303 731.548 542.076 749.74 550.454 C 736.897 581.353 716.635 606.816 691.626 623.625 L 691.626 536.4 Z  M 677.453 411.555 C 657.249 410.632 637.562 405.78 619.445 397.469 C 632.096 367.084 652.149 341.366 677.453 324.339 L 677.453 411.555 Z  M 677.453 466.894 L 604.494 466.894 C 605.169 447.379 608.622 428.441 614.478 410.778 C 634.171 419.669 655.54 424.824 677.453 425.742 L 677.453 466.894 Z  M 677.453 522.217 C 655.539 523.135 634.171 528.29 614.478 537.18 C 608.622 519.518 605.169 500.581 604.494 481.067 L 677.453 481.067 L 677.453 522.217 Z  M 677.453 623.62 C 652.149 606.592 632.096 580.875 619.444 550.49 C 637.562 542.178 657.249 537.327 677.453 536.404 L 677.453 623.62 Z  M 572.931 583.178 C 583.022 572.882 594.416 564.112 606.733 557.038 C 609.325 563.164 612.213 569.136 615.39 574.928 C 627.057 596.199 642.154 614.283 659.759 628.233 C 626.012 622.83 595.83 606.576 572.931 583.178 Z  M 563.466 572.591 C 542.905 547.393 530.035 515.673 528.481 481.067 L 590.311 481.067 C 591 502.689 594.838 523.828 601.619 543.65 C 587.708 551.399 574.839 561.114 563.466 572.591 Z  M 563.466 375.367 C 574.84 386.845 587.708 396.56 601.62 404.309 C 594.839 424.13 591 445.271 590.311 466.894 L 528.481 466.894 C 530.035 432.287 542.905 400.566 563.466 375.367 Z  M 659.76 319.726 C 642.155 333.676 627.058 351.76 615.39 373.031 C 612.213 378.823 609.326 384.795 606.733 390.92 C 594.416 383.846 583.022 375.077 572.932 364.78 C 595.83 341.383 626.012 325.129 659.76 319.726 Z  M 691.626 324.346 C 716.755 341.286 736.912 367.012 749.637 397.468 C 731.52 405.779 711.831 410.632 691.626 411.555 L 691.626 324.346 Z  M 796.235 364.691 C 786.118 375.031 774.694 383.83 762.334 390.926 C 758.463 381.768 753.944 372.974 748.816 364.658 C 737.942 347.025 724.513 331.801 709.281 319.718 C 742.63 325.033 773.028 340.961 796.235 364.691 Z  M 716.42 626.938 C 714.065 627.426 711.696 627.86 709.314 628.239 C 731.841 610.398 750.154 585.89 762.37 556.987 C 766.395 559.308 770.333 561.819 774.171 564.513 C 777.374 566.762 781.794 565.989 784.043 562.786 C 786.292 559.582 785.519 555.163 782.315 552.914 C 776.382 548.748 770.236 544.99 763.904 541.645 C 763.204 540.938 762.344 540.367 761.351 539.996 C 760.894 539.824 760.429 539.703 759.964 539.63 C 738.741 529.12 715.571 523.191 691.626 522.214 L 691.626 481.067 L 756.548 481.067 C 760.462 481.067 763.635 477.894 763.635 473.98 C 763.635 470.066 760.462 466.894 756.548 466.894 L 691.626 466.894 L 691.626 425.742 C 713.546 424.824 734.921 419.666 754.618 410.771 C 759.176 424.47 762.282 438.945 763.735 453.864 C 764.114 457.759 767.58 460.608 771.475 460.231 C 775.371 459.851 778.221 456.386 777.841 452.49 C 776.228 435.921 772.71 419.705 767.446 404.317 C 781.396 396.547 794.295 386.804 805.692 375.287 C 814.853 386.542 822.538 399.193 828.405 413.016 C 829.934 416.62 834.096 418.3 837.697 416.771 C 841.3 415.242 842.98 411.082 841.452 407.479 C 814.667 344.369 753.075 303.589 684.54 303.589 C 634.702 303.589 589.793 325.097 558.607 359.318 C 558.547 359.369 558.488 359.421 558.429 359.474 C 557.991 359.868 557.615 360.304 557.299 360.771 C 530.469 390.892 514.15 430.565 514.15 473.98 C 514.15 517.396 530.474 557.073 557.303 587.193 C 557.618 587.658 557.994 588.092 558.429 588.484 C 558.486 588.535 558.543 588.585 558.601 588.634 C 589.787 622.862 634.696 644.369 684.54 644.369 C 696.235 644.369 707.93 643.174 719.299 640.816 C 723.131 640.021 725.593 636.27 724.798 632.437 C 724.003 628.606 720.257 626.146 716.42 626.938 Z " fill="rgb(54,54,54)"/><path d=" M 933.677 649.323 C 933.677 656.445 927.883 662.238 920.762 662.238 L 760.824 662.238 C 753.703 662.238 747.909 656.445 747.909 649.323 L 747.909 637.43 C 747.909 625.277 760.706 618.675 781.783 609.244 C 793.8 603.868 806.226 598.308 815.428 590.102 C 816.936 588.758 817.798 586.834 817.798 584.813 L 817.798 581.834 C 824.922 585.611 832.745 587.606 840.795 587.606 C 848.842 587.606 856.665 585.611 863.787 581.835 L 863.787 584.813 C 863.787 586.834 864.649 588.758 866.157 590.103 C 875.358 598.307 887.783 603.866 899.8 609.243 C 920.878 618.675 933.677 625.278 933.677 637.43 L 933.677 649.323 Z  M 800.06 533.845 C 799.138 530.883 796.396 528.863 793.293 528.863 L 789.89 528.863 C 784.11 528.863 780.081 519.334 780.081 510.782 C 780.081 509.701 780.223 500.637 784.888 499.752 C 823.197 515.394 855.116 495.547 870.943 473.533 C 873.227 470.356 872.503 465.927 869.325 463.643 C 866.148 461.358 861.72 462.082 859.435 465.26 C 846.46 483.306 822.495 498.159 793.177 487.748 C 793.656 461.9 814.833 441.019 840.795 441.019 C 867.055 441.019 888.419 462.384 888.419 488.645 C 888.419 489.815 888.394 491.066 888.354 492.379 C 888.295 494.295 889.015 496.153 890.35 497.53 C 891.685 498.905 893.52 499.682 895.437 499.682 L 895.944 499.682 C 901.347 499.682 901.503 509.643 901.503 510.779 C 901.503 519.333 897.475 528.863 891.695 528.863 L 888.293 528.863 C 885.191 528.863 882.448 530.882 881.527 533.844 C 877.531 546.684 872.261 556.435 865.865 562.824 C 865.602 563.087 865.363 563.368 865.146 563.664 C 858.16 569.988 849.63 573.433 840.795 573.433 C 831.957 573.433 823.423 569.987 816.437 563.662 C 816.221 563.366 815.982 563.087 815.72 562.825 C 809.32 556.429 804.051 546.679 800.06 533.845 Z  M 905.589 596.306 C 895.656 591.862 885.421 587.282 877.96 581.492 L 877.96 570.928 C 878.43 570.427 878.799 569.905 879.09 569.353 C 884.805 562.563 889.611 553.719 893.428 542.962 C 907.394 541.754 915.676 526.015 915.676 510.779 C 915.676 498.704 910.615 489.794 902.562 486.699 C 901.53 453.52 874.219 426.846 840.795 426.846 C 807.369 426.846 780.056 453.52 779.025 486.699 C 770.97 489.796 765.908 498.706 765.908 510.782 C 765.908 526.017 774.191 541.754 788.156 542.962 C 791.972 553.719 796.778 562.563 802.499 569.356 C 802.789 569.906 803.157 570.428 803.603 570.904 C 803.625 570.927 803.625 581.492 803.625 581.492 C 796.164 587.283 785.927 591.864 775.995 596.307 C 755.219 605.602 733.736 615.214 733.736 637.43 L 733.736 649.323 C 733.736 664.26 745.887 676.411 760.824 676.411 L 920.762 676.411 C 935.698 676.411 947.85 664.26 947.85 649.323 L 947.85 637.43 C 947.85 615.216 926.365 605.602 905.589 596.306 Z " fill="rgb(54,54,54)"/></g></svg>