<?xml version="1.0" encoding="UTF-8" standalone="no"?>
<!-- Generator: Gravit.io -->
<svg xmlns="http://www.w3.org/2000/svg" xmlns:xlink="http://www.w3.org/1999/xlink" style="isolation:isolate" viewBox="1489.485 884.679 124.342 151.263" width="124.342pt" height="151.263pt"><defs><clipPath id="_clipPath_0cEFKtOhgBFXE7MEW5nekTrqeNhIh7wN"><rect x="1489.485" y="884.679" width="124.342" height="151.263"/></clipPath></defs><g clip-path="url(#_clipPath_0cEFKtOhgBFXE7MEW5nekTrqeNhIh7wN)"><path d=" M 1561.846 921.917 L 1537.472 921.917 L 1537.472 897.543 L 1561.846 897.543 L 1561.846 921.917 Z  M 1524.609 934.781 L 1574.711 934.781 L 1574.711 884.679 L 1524.609 884.679 L 1524.609 934.781 Z " fill="rgb(94,255,94)"/><path d=" M 1533.193 946.825 L 1538.709 951.59 L 1538.709 958.17" fill="none" vector-effect="non-scaling-stroke" stroke-width="3" stroke="rgb(52,65,84)" stroke-linejoin="miter" stroke-linecap="round" stroke-miterlimit="3" style="mix-blend-mode:source-over;"/><path d=" M 1533.485 937.466 C 1533.485 942.501 1530.063 946.582 1525.839 946.582 C 1521.616 946.582 1518.193 942.501 1518.193 937.466 C 1518.193 932.43 1521.616 928.349 1525.839 928.349 C 1530.063 928.349 1533.485 932.43 1533.485 937.466 Z " fill="none" vector-effect="non-scaling-stroke" stroke-width="3" stroke="rgb(52,65,84)" stroke-linejoin="miter" stroke-linecap="round" stroke-miterlimit="3" style="mix-blend-mode:source-over;"/><path d=" M 1559.088 946.825 L 1564.604 951.59 L 1564.604 958.17" fill="none" vector-effect="non-scaling-stroke" stroke-width="3" stroke="rgb(52,65,84)" stroke-linejoin="miter" stroke-linecap="round" stroke-miterlimit="3" style="mix-blend-mode:source-over;"/><line x1="1544.236" y1="946.678" x2="1538.709" y2="951.589" vector-effect="non-scaling-stroke" stroke-width="3" stroke="rgb(52,65,84)" stroke-linejoin="miter" stroke-linecap="round" stroke-miterlimit="3" style="mix-blend-mode:source-over;"/><path d=" M 1559.38 937.466 C 1559.38 942.501 1555.957 946.582 1551.734 946.582 C 1547.511 946.582 1544.087 942.501 1544.087 937.466 C 1544.087 932.43 1547.511 928.349 1551.734 928.349 C 1555.957 928.349 1559.38 932.43 1559.38 937.466 Z " fill="none" vector-effect="non-scaling-stroke" stroke-width="3" stroke="rgb(52,65,84)" stroke-linejoin="miter" stroke-linecap="round" stroke-miterlimit="3" style="mix-blend-mode:source-over;"/><line x1="1590.498" y1="951.589" x2="1584.982" y2="946.824" vector-effect="non-scaling-stroke" stroke-width="3" stroke="rgb(52,65,84)" stroke-linejoin="miter" stroke-linecap="round" stroke-miterlimit="3" style="mix-blend-mode:source-over;"/><path d=" M 1550.905 967.736 L 1599.238 967.736 L 1590.498 958.17" fill="none" vector-effect="non-scaling-stroke" stroke-width="3" stroke="rgb(52,65,84)" stroke-linejoin="miter" stroke-linecap="round" stroke-miterlimit="3" style="mix-blend-mode:source-over;"/><line x1="1512.142" y1="951.589" x2="1517.658" y2="946.824" vector-effect="non-scaling-stroke" stroke-width="3" stroke="rgb(52,65,84)" stroke-linejoin="miter" stroke-linecap="round" stroke-miterlimit="3" style="mix-blend-mode:source-over;"/><path d=" M 1551.734 967.736 L 1503.401 967.736 L 1512.141 958.17" fill="none" vector-effect="non-scaling-stroke" stroke-width="3" stroke="rgb(52,65,84)" stroke-linejoin="miter" stroke-linecap="round" stroke-miterlimit="3" style="mix-blend-mode:source-over;"/><line x1="1570.131" y1="946.678" x2="1564.604" y2="951.589" vector-effect="non-scaling-stroke" stroke-width="3" stroke="rgb(52,65,84)" stroke-linejoin="miter" stroke-linecap="round" stroke-miterlimit="3" style="mix-blend-mode:source-over;"/><path d=" M 1585.276 937.466 C 1585.276 942.501 1581.851 946.582 1577.63 946.582 C 1573.406 946.582 1569.983 942.501 1569.983 937.466 C 1569.983 932.43 1573.406 928.349 1577.63 928.349 C 1581.851 928.349 1585.276 932.43 1585.276 937.466 Z " fill="none" vector-effect="non-scaling-stroke" stroke-width="3" stroke="rgb(52,65,84)" stroke-linejoin="miter" stroke-linecap="round" stroke-miterlimit="3" style="mix-blend-mode:source-over;"/><path d=" M 1599.588 985.076 L 1503.724 985.076 C 1499.089 985.076 1495.332 981.318 1495.332 976.682 L 1495.332 909.834 C 1495.332 905.201 1499.089 901.443 1503.724 901.443 L 1599.588 901.443 C 1604.223 901.443 1607.98 905.201 1607.98 909.834 L 1607.98 976.682 C 1607.98 981.318 1604.223 985.076 1599.588 985.076 Z " fill="none" vector-effect="non-scaling-stroke" stroke-width="3" stroke="rgb(52,65,84)" stroke-linejoin="miter" stroke-linecap="round" stroke-miterlimit="3" style="mix-blend-mode:source-over;"/><path d=" M 1522.925 985.076 L 1517.805 998.018 L 1551.656 998.018 L 1585.507 998.018 L 1580.387 985.076" fill="none" vector-effect="non-scaling-stroke" stroke-width="3" stroke="rgb(52,65,84)" stroke-linejoin="miter" stroke-linecap="round" stroke-miterlimit="3" style="mix-blend-mode:source-over;"/><path d=" M 1599.02 1007.832 L 1608.822 1025.519 C 1610.295 1028.178 1608.373 1031.442 1605.332 1031.442 L 1551.657 1031.442 L 1497.98 1031.442 C 1494.94 1031.442 1493.017 1028.178 1494.491 1025.519 L 1504.293 1007.832 L 1599.02 1007.832 Z " fill="none" vector-effect="non-scaling-stroke" stroke-width="3" stroke="rgb(52,65,84)" stroke-linejoin="miter" stroke-linecap="round" stroke-miterlimit="3" style="mix-blend-mode:source-over;"/><line x1="1518.607" y1="1019.637" x2="1589.412" y2="1019.637" vector-effect="non-scaling-stroke" stroke-width="3" stroke-dasharray="0,9.43" stroke="rgb(52,65,84)" stroke-linejoin="miter" stroke-linecap="round" stroke-miterlimit="3" style="mix-blend-mode:source-over;"/><path d=" M 1561.738 901.443 L 1561.738 912.183 C 1561.738 914.576 1559.799 916.516 1557.405 916.516 L 1544.405 916.516 C 1542.011 916.516 1540.072 914.576 1540.072 912.183 L 1540.072 901.443" fill="none" vector-effect="non-scaling-stroke" stroke-width="3" stroke="rgb(52,65,84)" stroke-linejoin="miter" stroke-linecap="round" stroke-miterlimit="3" style="mix-blend-mode:source-over;"/><path d=" M 1551.656 908.979 C 1551.656 909.394 1551.32 909.729 1550.905 909.729 C 1550.491 909.729 1550.154 909.394 1550.154 908.979 C 1550.154 908.564 1550.491 908.228 1550.905 908.228 C 1551.32 908.228 1551.656 908.564 1551.656 908.979 Z " fill="none" vector-effect="non-scaling-stroke" stroke-width="3" stroke="rgb(52,65,84)" stroke-linejoin="miter" stroke-linecap="round" stroke-miterlimit="3" style="mix-blend-mode:source-over;"/><line x1="1512.142" y1="958.169" x2="1525.839" y2="958.169" vector-effect="non-scaling-stroke" stroke-width="3" stroke="rgb(52,65,84)" stroke-linejoin="miter" stroke-linecap="round" stroke-miterlimit="3" style="mix-blend-mode:source-over;"/><line x1="1590.498" y1="958.169" x2="1577.629" y2="958.169" vector-effect="non-scaling-stroke" stroke-width="3" stroke="rgb(52,65,84)" stroke-linejoin="miter" stroke-linecap="round" stroke-miterlimit="3" style="mix-blend-mode:source-over;"/></g></svg>