<?xml version="1.0" encoding="UTF-8" standalone="no"?>
<!-- Generator: Gravit.io -->
<svg xmlns="http://www.w3.org/2000/svg" xmlns:xlink="http://www.w3.org/1999/xlink" style="isolation:isolate" viewBox="1066.324 1315.056 124.86 152.874" width="124.86pt" height="152.874pt"><defs><clipPath id="_clipPath_ilOQI8BYnCAmcQOsNCcczq1tgLiuOh0v"><rect x="1066.324" y="1315.056" width="124.86" height="152.874"/></clipPath></defs><g clip-path="url(#_clipPath_ilOQI8BYnCAmcQOsNCcczq1tgLiuOh0v)"><path d=" M 1145.531 1379.711 L 1161.463 1393.474 L 1161.463 1410.095" fill="none" vector-effect="non-scaling-stroke" stroke-width="3" stroke="rgb(52,65,84)" stroke-linejoin="miter" stroke-linecap="round" stroke-miterlimit="3" style="mix-blend-mode:source-over;"/><path d=" M 1111.979 1379.318 L 1096.046 1393.474 L 1096.046 1410.095" fill="none" vector-effect="non-scaling-stroke" stroke-width="3" stroke="rgb(52,65,84)" stroke-linejoin="miter" stroke-linecap="round" stroke-miterlimit="3" style="mix-blend-mode:source-over;"/><path d=" M 1148.268 1357.794 C 1148.268 1370.514 1139.62 1380.825 1128.952 1380.825 C 1118.283 1380.825 1109.634 1370.514 1109.634 1357.794 C 1109.634 1345.073 1118.283 1334.762 1128.952 1334.762 C 1139.62 1334.762 1148.268 1345.073 1148.268 1357.794 Z " fill="none" vector-effect="non-scaling-stroke" stroke-width="3" stroke="rgb(52,65,84)" stroke-linejoin="miter" stroke-linecap="round" stroke-miterlimit="3" style="mix-blend-mode:source-over;"/><path d=" M 1173.037 1453.448 L 1183.604 1417.901 C 1184.763 1414.007 1181.845 1410.094 1177.781 1410.094 L 1128.755 1410.094 L 1079.727 1410.094 C 1075.664 1410.094 1072.746 1414.007 1073.904 1417.901 L 1084.473 1453.449 L 1128.951 1453.449" fill="none" vector-effect="non-scaling-stroke" stroke-width="3" stroke="rgb(52,65,84)" stroke-linejoin="miter" stroke-linecap="round" stroke-miterlimit="3" style="mix-blend-mode:source-over;"/><path d=" M 1077.005 1446.002 L 1071.372 1456.612 C 1069.732 1459.703 1071.972 1463.429 1075.471 1463.429 L 1128.755 1463.429 L 1182.038 1463.429 C 1185.537 1463.429 1187.777 1459.703 1186.137 1456.612 L 1180.505 1446.002" fill="none" vector-effect="non-scaling-stroke" stroke-width="3" stroke="rgb(52,65,84)" stroke-linejoin="miter" stroke-linecap="round" stroke-miterlimit="3" style="mix-blend-mode:source-over;"/><path d=" M 1103.28 1345.032 C 1103.28 1330.963 1114.685 1319.556 1128.756 1319.556 C 1142.825 1319.556 1154.23 1330.963 1154.23 1345.032" fill="none" vector-effect="non-scaling-stroke" stroke-width="3" stroke="rgb(52,65,84)" stroke-linejoin="miter" stroke-linecap="round" stroke-miterlimit="3" style="mix-blend-mode:source-over;"/><path d=" M 1145.032 1344.876 L 1153.737 1344.876 C 1156.974 1344.876 1159.599 1347.501 1159.599 1350.739 L 1159.599 1353.898 C 1159.599 1357.136 1156.974 1359.761 1153.737 1359.761 L 1148.195 1359.761" fill="none" vector-effect="non-scaling-stroke" stroke-width="3" stroke="rgb(52,65,84)" stroke-linejoin="miter" stroke-linecap="round" stroke-miterlimit="3" style="mix-blend-mode:source-over;"/><path d=" M 1112.211 1344.876 L 1103.773 1344.876 C 1100.534 1344.876 1097.909 1347.501 1097.909 1350.739 L 1097.909 1353.898 C 1097.909 1357.136 1100.534 1359.761 1103.773 1359.761 L 1109.634 1359.761" fill="none" vector-effect="non-scaling-stroke" stroke-width="3" stroke="rgb(52,65,84)" stroke-linejoin="miter" stroke-linecap="round" stroke-miterlimit="3" style="mix-blend-mode:source-over;"/></g></svg>