<?xml version="1.0" encoding="UTF-8" standalone="no"?>
<!-- Generator: Gravit.io -->
<svg xmlns="http://www.w3.org/2000/svg" xmlns:xlink="http://www.w3.org/1999/xlink" style="isolation:isolate" viewBox="245.789 85.77 94.708 94.7" width="94.708pt" height="94.7pt"><defs><clipPath id="_clipPath_neEgBb7R4VgUwg7SlhKZ8WRlAMGGnozs"><rect x="245.789" y="85.77" width="94.708" height="94.7"/></clipPath></defs><g clip-path="url(#_clipPath_neEgBb7R4VgUwg7SlhKZ8WRlAMGGnozs)"><path d=" M 293.144 89.77 C 274.311 89.77 257.748 101.803 251.93 119.714 C 246.109 137.625 252.436 157.095 267.671 168.163 C 282.908 179.235 303.38 179.235 318.616 168.164 C 333.852 157.095 340.178 137.624 334.358 119.714 C 328.539 101.803 311.977 89.77 293.144 89.77 Z  M 293.144 180.47 C 283.392 180.47 273.643 177.447 265.32 171.399 C 248.678 159.31 241.768 138.042 248.126 118.478 C 254.481 98.914 272.573 85.77 293.144 85.77 C 313.715 85.77 331.807 98.914 338.162 118.478 C 344.519 138.042 337.609 159.31 320.967 171.399 C 312.647 177.445 302.894 180.47 293.144 180.47 Z " fill="rgb(35,31,32)"/><path d=" M 285.763 143.915 C 280.744 143.741 277.607 140.136 276.777 137.21 C 278.173 137.478 279.549 137.425 280.917 137.088 C 280.953 137.081 280.988 137.056 281.057 137.023 C 278.337 136.391 276.239 134.937 274.782 132.591 C 273.816 131.033 273.353 129.329 273.367 127.457 C 274.725 128.18 276.143 128.585 277.666 128.626 C 275.622 127.153 274.25 125.229 273.69 122.766 C 273.134 120.31 273.493 117.976 274.727 115.772 C 279.957 121.929 286.575 125.31 294.647 125.866 C 294.593 125.48 294.532 125.148 294.493 124.807 C 294.223 122.534 294.676 120.415 295.906 118.491 C 297.44 116.081 299.636 114.583 302.454 114.124 C 305.703 113.592 308.538 114.518 310.911 116.819 C 311.069 116.974 311.201 117.022 311.424 116.974 C 313.409 116.539 315.282 115.825 317.044 114.81 C 317.084 114.786 317.127 114.766 317.171 114.745 C 317.18 114.741 317.196 114.741 317.235 114.741 C 316.471 116.985 315.079 118.719 313.098 119.997 C 314.97 119.79 316.755 119.295 318.478 118.548 C 318.492 118.564 318.505 118.581 318.517 118.593 C 318.148 119.076 317.79 119.571 317.407 120.042 C 316.382 121.304 315.205 122.416 313.896 123.378 C 313.784 123.459 313.732 123.537 313.736 123.683 C 313.788 125.115 313.734 126.548 313.557 127.969 C 313.184 130.972 312.347 133.833 311.067 136.569 C 309.744 139.394 308.019 141.943 305.846 144.183 C 302.166 147.986 297.734 150.442 292.572 151.582 C 290.802 151.972 289.006 152.167 287.191 152.22 C 281.623 152.382 276.472 150.998 271.736 148.071 C 271.675 148.035 271.614 147.995 271.509 147.925 C 274.879 148.287 278.086 147.856 281.17 146.594 C 282.808 145.92 284.326 145.04 285.763 143.915 Z " fill-rule="evenodd" fill="rgb(35,31,32)"/></g></svg>