<?xml version="1.0" encoding="UTF-8" standalone="no"?>
<!-- Generator: Gravit.io -->
<svg xmlns="http://www.w3.org/2000/svg" xmlns:xlink="http://www.w3.org/1999/xlink" style="isolation:isolate" viewBox="88.951 245.811 94.709 94.699" width="94.709pt" height="94.699pt"><defs><clipPath id="_clipPath_wNDUIQsV0bBOZENfLZrxMrr3R2PbXsFm"><rect x="88.951" y="245.811" width="94.709" height="94.699"/></clipPath></defs><g clip-path="url(#_clipPath_wNDUIQsV0bBOZENfLZrxMrr3R2PbXsFm)"><path d=" M 136.305 249.811 C 117.472 249.811 100.909 261.844 95.091 279.754 C 89.271 297.665 95.597 317.135 110.832 328.203 C 126.069 339.275 146.542 339.276 161.777 328.203 C 177.013 317.135 183.34 297.664 177.519 279.754 C 171.701 261.844 155.138 249.811 136.305 249.811 Z  M 136.305 340.509 C 126.553 340.509 116.804 337.487 108.481 331.44 C 91.84 319.35 84.93 298.082 91.286 278.518 C 97.642 258.954 115.734 245.811 136.305 245.811 C 156.877 245.811 174.968 258.954 181.324 278.518 C 187.681 298.082 180.771 319.35 164.128 331.44 C 155.808 337.486 146.055 340.509 136.305 340.509 Z " fill="rgb(35,31,32)"/><path d=" M 131.1 299.519 C 135.483 297.246 139.826 294.994 144.228 292.712 C 139.822 290.411 135.475 288.146 131.1 285.861 L 131.1 299.519 Z  M 119.52 307.092 C 117.925 306.569 116.851 305.526 116.275 303.943 C 114.869 300.079 114.455 283.917 117.16 280.735 C 118.083 279.647 119.275 279.006 120.691 278.856 C 127.98 278.073 150.509 278.182 153.104 279.12 C 154.624 279.667 155.706 280.662 156.292 282.184 C 157.831 286.178 157.884 300.708 156.092 304.556 C 155.602 305.599 154.811 306.338 153.805 306.861 C 151.085 308.29 123.098 308.269 119.52 307.092 Z " fill-rule="evenodd" fill="rgb(35,31,32)"/></g></svg>