<?xml version="1.0" encoding="UTF-8" standalone="no"?>
<!-- Generator: Gravit.io -->
<svg xmlns="http://www.w3.org/2000/svg" xmlns:xlink="http://www.w3.org/1999/xlink" style="isolation:isolate" viewBox="88.951 85.77 94.709 94.699" width="94.709pt" height="94.699pt"><defs><clipPath id="_clipPath_VCPQPQV8FavLoTbDVgOAJiIHlArXTp0Z"><rect x="88.951" y="85.77" width="94.709" height="94.699"/></clipPath></defs><g clip-path="url(#_clipPath_VCPQPQV8FavLoTbDVgOAJiIHlArXTp0Z)"><path d=" M 136.305 89.77 C 117.472 89.77 100.91 101.803 95.091 119.714 C 89.271 137.625 95.597 157.095 110.832 168.163 C 126.069 179.235 146.542 179.236 161.777 168.164 C 177.013 157.095 183.34 137.624 177.519 119.714 C 171.701 101.803 155.138 89.77 136.305 89.77 Z  M 136.305 180.469 C 126.553 180.469 116.804 177.447 108.481 171.399 C 91.84 159.31 84.93 138.042 91.286 118.478 C 97.642 98.914 115.734 85.77 136.305 85.77 C 156.876 85.77 174.968 98.914 181.324 118.478 C 187.681 138.042 180.771 159.31 164.128 171.399 C 155.808 177.445 146.055 180.469 136.305 180.469 Z " fill="rgb(35,31,32)"/><path d=" M 143.077 118.783 C 144.429 118.734 145.778 118.771 147.134 118.771 L 147.692 118.771 L 147.692 111.737 C 146.97 111.668 146.215 111.562 145.46 111.526 C 144.074 111.465 142.685 111.396 141.297 111.429 C 139.179 111.473 137.174 111.989 135.422 113.242 C 133.415 114.688 132.313 116.717 131.893 119.112 C 131.719 120.098 131.674 121.125 131.647 122.127 C 131.609 123.706 131.642 125.281 131.644 126.86 L 131.644 127.452 L 124.916 127.452 L 124.916 135.306 L 131.603 135.306 L 131.603 155.044 L 139.775 155.044 L 139.775 135.338 L 146.442 135.338 C 146.783 132.724 147.118 130.139 147.467 127.449 C 146.931 127.449 146.45 127.444 145.969 127.449 C 144.074 127.457 139.723 127.449 139.723 127.449 C 139.723 127.449 139.741 123.556 139.787 121.867 C 139.852 119.554 141.224 118.848 143.077 118.783 Z " fill-rule="evenodd" fill="rgb(35,31,32)"/></g></svg>