<?xml version="1.0" encoding="UTF-8" standalone="no"?>
<!-- Generator: Gravit.io -->
<svg xmlns="http://www.w3.org/2000/svg" xmlns:xlink="http://www.w3.org/1999/xlink" style="isolation:isolate" viewBox="559.467 85.77 94.709 94.7" width="94.709pt" height="94.7pt"><defs><clipPath id="_clipPath_AAhJfBUP7oZsByothIDhCbffzNurDHQ5"><rect x="559.467" y="85.77" width="94.709" height="94.7"/></clipPath></defs><g clip-path="url(#_clipPath_AAhJfBUP7oZsByothIDhCbffzNurDHQ5)"><path d=" M 606.821 89.77 C 587.99 89.77 571.427 101.804 565.607 119.714 C 559.787 137.624 566.113 157.095 581.349 168.163 C 596.584 179.235 617.056 179.235 632.293 168.164 C 647.53 157.095 653.856 137.625 648.035 119.714 C 642.217 101.803 625.655 89.77 606.821 89.77 Z  M 606.821 180.47 C 597.069 180.47 587.32 177.447 578.998 171.399 C 562.356 159.309 555.446 138.041 561.802 118.478 C 568.161 98.914 586.253 85.77 606.821 85.77 C 627.393 85.77 645.484 98.914 651.84 118.478 C 658.198 138.042 651.287 159.31 634.644 171.399 C 626.324 177.446 616.571 180.47 606.821 180.47 Z " fill="rgb(35,31,32)"/><path d=" M 592.791 111.536 C 595.411 111.536 597.54 113.667 597.54 116.281 C 597.54 118.903 595.411 121.034 592.791 121.034 C 590.163 121.034 588.041 118.903 588.041 116.281 C 588.041 113.667 590.163 111.536 592.791 111.536 Z  M 588.69 124.63 L 596.89 124.63 L 596.89 150.971 L 588.69 150.971 L 588.69 124.63 Z " fill="rgb(35,31,32)"/><path d=" M 602.029 124.629 L 609.883 124.629 L 609.883 128.229 L 609.99 128.229 C 611.084 126.159 613.757 123.976 617.743 123.976 C 626.032 123.976 627.562 129.426 627.562 136.521 L 627.562 150.97 L 619.38 150.97 L 619.38 138.165 C 619.38 135.108 619.319 131.18 615.125 131.18 C 610.861 131.18 610.211 134.504 610.211 137.938 L 610.211 150.97 L 602.029 150.97 L 602.029 124.629 Z " fill="rgb(35,31,32)"/></g></svg>