<?xml version="1.0" encoding="UTF-8" standalone="no"?>
<!-- Generator: Gravit.io -->
<svg xmlns="http://www.w3.org/2000/svg" xmlns:xlink="http://www.w3.org/1999/xlink" style="isolation:isolate" viewBox="88.951 405.851 94.708 94.699" width="94.708pt" height="94.699pt"><defs><clipPath id="_clipPath_iRDKVXBY1QTMY1LS5P3STeOlE0EU7gaB"><rect x="88.951" y="405.851" width="94.708" height="94.699"/></clipPath></defs><g clip-path="url(#_clipPath_iRDKVXBY1QTMY1LS5P3STeOlE0EU7gaB)"><path d=" M 136.305 409.851 C 117.472 409.851 100.909 421.884 95.091 439.794 C 89.271 457.706 95.597 477.176 110.832 488.244 C 126.069 499.317 146.542 499.317 161.777 488.244 C 177.013 477.175 183.339 457.704 177.519 439.794 C 171.699 421.884 155.136 409.851 136.305 409.851 Z  M 136.305 500.55 C 126.553 500.55 116.804 497.527 108.481 491.48 C 91.839 479.391 84.93 458.123 91.286 438.558 C 97.642 418.995 115.734 405.851 136.305 405.851 C 156.874 405.851 174.966 418.995 181.323 438.558 C 187.681 458.121 180.771 479.39 164.129 491.48 C 155.808 497.526 146.055 500.55 136.305 500.55 Z " fill="rgb(35,31,32)"/><path d=" M 152.437 453.048 C 152.437 450.449 152.449 447.85 152.429 445.251 C 152.424 444.61 152.387 443.954 152.249 443.332 C 151.419 439.606 148.332 437.093 144.517 437.074 C 139.171 437.047 133.825 437.062 128.48 437.075 C 127.931 437.076 127.371 437.132 126.836 437.253 C 123.113 438.089 120.599 441.172 120.58 444.987 C 120.553 450.333 120.568 455.679 120.581 461.025 C 120.582 461.572 120.638 462.133 120.758 462.667 C 121.6 466.413 124.695 468.912 128.548 468.927 C 133.857 468.946 139.166 468.937 144.474 468.924 C 145.041 468.922 145.621 468.869 146.172 468.745 C 149.897 467.91 152.397 464.826 152.432 461.011 C 152.457 458.357 152.437 455.702 152.437 453.048 Z  M 136.473 472.473 C 133.892 472.473 131.312 472.477 128.73 472.472 C 123.579 472.462 119.317 469.495 117.661 464.627 C 117.259 463.446 117.074 462.141 117.059 460.889 C 116.994 455.636 117.02 450.382 117.035 445.129 C 117.051 439.59 120.686 435.028 126.079 433.801 C 126.933 433.607 127.833 433.542 128.711 433.538 C 133.91 433.514 139.108 433.519 144.306 433.528 C 149.893 433.537 154.447 437.133 155.699 442.561 C 155.895 443.414 155.962 444.313 155.966 445.192 C 155.99 450.39 155.984 455.589 155.976 460.787 C 155.968 466.381 152.396 470.916 146.957 472.188 C 146.086 472.391 145.167 472.448 144.27 472.46 C 141.671 472.495 139.072 472.473 136.473 472.473 Z " fill="rgb(35,31,32)"/><path d=" M 143.584 453.022 C 143.597 449.114 140.465 445.948 136.555 445.919 C 132.626 445.89 129.438 449.044 129.425 452.975 C 129.412 456.883 132.544 460.049 136.453 460.078 C 140.382 460.107 143.57 456.953 143.584 453.022 Z  M 147.124 452.975 C 147.144 458.804 142.352 463.611 136.514 463.619 C 130.681 463.626 125.881 458.828 125.884 452.995 C 125.888 447.179 130.644 442.409 136.467 442.378 C 142.292 442.349 147.105 447.134 147.124 452.975 Z " fill="rgb(35,31,32)"/><path d=" M 146.988 440.942 C 147.878 440.957 148.591 441.708 148.56 442.598 C 148.531 443.465 147.801 444.158 146.933 444.144 C 146.044 444.129 145.331 443.378 145.361 442.488 C 145.39 441.62 146.12 440.927 146.988 440.942 Z " fill="rgb(35,31,32)"/></g></svg>